<svg xmlns="http://www.w3.org/2000/svg" width="750" height="500" viewBox="0 0 750 500"><rect width="100%" height="100%" fill="#DDDDDD"/><path fill="#999999" d="M153.515 214.21h49.45v5.3q0 2.38-.5 3.84-.49 1.46-.99 2.45l-27.12 55.83q-.85 1.73-2.38 2.95-1.53 1.21-4.11 1.21h-8.86l27.67-54.7q.94-1.68 1.86-3.09.91-1.41 2.05-2.7h-34.25q-1.14 0-1.98-.84-.84-.84-.84-1.98v-8.27Zm75.43 11.09-2.52 14.9q2.38-.49 4.55-.72 2.18-.22 4.21-.22 5.64 0 9.95 1.68 4.31 1.69 7.23 4.66 2.92 2.97 4.4 6.95 1.49 3.99 1.49 8.59 0 5.69-2.01 10.39-2 4.71-5.57 8.05-3.56 3.34-8.43 5.17-4.88 1.83-10.62 1.83-3.37 0-6.39-.69-3.02-.69-5.67-1.86-2.64-1.16-4.9-2.67-2.25-1.51-4.03-3.19l3.76-5.2q1.19-1.68 3.12-1.68 1.24 0 2.52.79 1.29.79 2.95 1.73 1.66.94 3.91 1.73 2.25.8 5.42.8 3.37 0 5.94-1.09 2.57-1.09 4.28-3.05 1.71-1.95 2.58-4.65.86-2.7.86-5.87 0-5.84-3.39-9.13-3.39-3.29-10.02-3.29-5.1 0-10.45 1.88l-7.62-2.18 5.94-34.75h35.34v5.2q0 2.62-1.63 4.26-1.63 1.63-5.54 1.63h-19.66Zm89.75 24.7q0 9.36-2.01 16.26-2 6.91-5.54 11.41-3.54 4.51-8.37 6.71-4.82 2.2-10.42 2.2-5.59 0-10.37-2.2-4.77-2.2-8.29-6.71-3.51-4.5-5.49-11.41-1.98-6.9-1.98-16.26 0-9.4 1.98-16.28 1.98-6.88 5.49-11.39 3.52-4.5 8.29-6.71 4.78-2.2 10.37-2.2 5.6 0 10.42 2.2 4.83 2.21 8.37 6.71 3.54 4.51 5.54 11.39 2.01 6.88 2.01 16.28Zm-12.62 0q0-7.77-1.14-12.87t-3.05-8.12q-1.9-3.02-4.38-4.23-2.47-1.21-5.15-1.21-2.62 0-5.07 1.21t-4.33 4.23q-1.88 3.02-3 8.12-1.11 5.1-1.11 12.87t1.11 12.87q1.12 5.1 3 8.12 1.88 3.02 4.33 4.23 2.45 1.21 5.07 1.21 2.68 0 5.15-1.21 2.48-1.21 4.38-4.23 1.91-3.02 3.05-8.12t1.14-12.87Zm91.22 19.41-6.48 6.38-16.78-16.78-16.93 16.88-6.48-6.39 16.92-16.97-16.13-16.14 6.43-6.44 16.14 16.14 16.04-16.04 6.53 6.44-16.09 16.09 16.83 16.83Zm52.03-44.11-2.53 14.9q2.38-.49 4.56-.72 2.18-.22 4.21-.22 5.64 0 9.94 1.68 4.31 1.69 7.23 4.66 2.92 2.97 4.41 6.95 1.48 3.99 1.48 8.59 0 5.69-2 10.39-2.01 4.71-5.57 8.05-3.57 3.34-8.44 5.17-4.88 1.83-10.62 1.83-3.36 0-6.38-.69t-5.67-1.86q-2.65-1.16-4.9-2.67-2.25-1.51-4.04-3.19l3.77-5.2q1.18-1.68 3.11-1.68 1.24 0 2.53.79 1.29.79 2.94 1.73 1.66.94 3.91 1.73 2.26.8 5.42.8 3.37 0 5.94-1.09 2.58-1.09 4.29-3.05 1.7-1.95 2.57-4.65.87-2.7.87-5.87 0-5.84-3.39-9.13-3.4-3.29-10.03-3.29-5.1 0-10.44 1.88l-7.63-2.18 5.94-34.75h35.35v5.2q0 2.62-1.64 4.26-1.63 1.63-5.54 1.63h-19.65Zm89.74 24.7q0 9.36-2 16.26-2.01 6.91-5.55 11.41-3.54 4.51-8.36 6.71-4.83 2.2-10.42 2.2-5.6 0-10.37-2.2-4.78-2.2-8.29-6.71-3.52-4.5-5.5-11.41-1.98-6.9-1.98-16.26 0-9.4 1.98-16.28 1.98-6.88 5.5-11.39 3.51-4.5 8.29-6.71 4.77-2.2 10.37-2.2 5.59 0 10.42 2.2 4.82 2.21 8.36 6.71 3.54 4.51 5.55 11.39 2 6.88 2 16.28Zm-12.62 0q0-7.77-1.14-12.87t-3.04-8.12q-1.91-3.02-4.38-4.23-2.48-1.21-5.15-1.21-2.63 0-5.08 1.21t-4.33 4.23q-1.88 3.02-2.99 8.12-1.12 5.1-1.12 12.87t1.12 12.87q1.11 5.1 2.99 8.12 1.88 3.02 4.33 4.23 2.45 1.21 5.08 1.21 2.67 0 5.15-1.21 2.47-1.21 4.38-4.23 1.9-3.02 3.04-8.12 1.14-5.1 1.14-12.87Zm70.04 0q0 9.36-2 16.26-2.01 6.91-5.55 11.41-3.54 4.51-8.36 6.71-4.83 2.2-10.42 2.2-5.6 0-10.37-2.2-4.78-2.2-8.29-6.71-3.52-4.5-5.5-11.41-1.98-6.9-1.98-16.26 0-9.4 1.98-16.28 1.98-6.88 5.5-11.39 3.51-4.5 8.29-6.71 4.77-2.2 10.37-2.2 5.59 0 10.42 2.2 4.82 2.21 8.36 6.71 3.54 4.51 5.55 11.39 2 6.88 2 16.28Zm-12.62 0q0-7.77-1.14-12.87t-3.04-8.12q-1.91-3.02-4.38-4.23-2.48-1.21-5.15-1.21-2.63 0-5.08 1.21t-4.33 4.23q-1.88 3.02-2.99 8.12-1.12 5.1-1.12 12.87t1.12 12.87q1.11 5.1 2.99 8.12 1.88 3.02 4.33 4.23 2.45 1.21 5.08 1.21 2.67 0 5.15-1.21 2.47-1.21 4.38-4.23 1.9-3.02 3.04-8.12 1.14-5.1 1.14-12.87Z"/></svg>